<?xml version="1.0" encoding="UTF-8" standalone="no"?>
<!DOCTYPE svg PUBLIC "-//W3C//DTD SVG 1.1//EN" "http://www.w3.org/Graphics/SVG/1.1/DTD/svg11.dtd">
<svg width="100%" height="100%" viewBox="0 0 1600 329" version="1.1" xmlns="http://www.w3.org/2000/svg" xmlns:xlink="http://www.w3.org/1999/xlink" xml:space="preserve" xmlns:serif="http://www.serif.com/" style="fill-rule:evenodd;clip-rule:evenodd;stroke-linecap:round;stroke-linejoin:round;stroke-miterlimit:1.5;">
    <g transform="matrix(0.941078,2.58357e-20,1.75846e-19,0.153158,-424.745,-75.9915)">
        <rect x="461.902" y="382.382" width="1677.44" height="1178.81" style="fill:rgb(16,7,18);stroke:rgb(22,18,67);stroke-width:1.48px;"/>
    </g>
    <g transform="matrix(1,0,0,1,114.244,-168)">
        <g transform="matrix(1,0,0,1,-348.231,-104.089)">
            <text x="496.574px" y="392.437px" style="font-family:'Aldrich';font-size:130px;fill:rgb(150,128,94);stroke:rgb(150,128,94);stroke-width:1px;stroke-linecap:butt;stroke-miterlimit:2;">Benoît</text>
        </g>
        <g transform="matrix(1,0,0,1,105.026,-104.401)">
            <text x="496.574px" y="392.437px" style="font-family:'Aldrich';font-size:140px;fill:rgb(150,128,94);stroke:rgb(149,128,96);stroke-width:1px;stroke-linecap:butt;stroke-miterlimit:2;">Delplace</text>
        </g>
    </g>
    <g transform="matrix(1,0,0,1,50.1595,0)">
        <g transform="matrix(1,0,0,1,-504.361,-92.0836)">
            <text x="496.574px" y="392.437px" style="font-family:'Drugs';font-weight:250;font-size:130px;fill:rgb(67,149,159);stroke:rgb(63,149,160);stroke-width:1px;stroke-linecap:butt;stroke-miterlimit:2;">Dé<tspan x="664.924px 731.224px " y="392.437px 392.437px ">ve</tspan>loppeur</text>
        </g>
        <g transform="matrix(1,0,0,1,315.348,-89.0544)">
            <text x="496.574px" y="392.437px" style="font-family:'Drugs';font-weight:250;font-size:130px;fill:rgb(67,149,159);stroke:rgb(63,149,160);stroke-width:1px;stroke-linecap:butt;stroke-miterlimit:2;">d&apos;émotions</text>
        </g>
    </g>
    <g transform="matrix(0.711947,0,0,1,-96.4913,53.6733)">
        <rect x="152.023" y="95.422" width="2214.48" height="16.109" style="fill:rgb(150,128,94);stroke:rgb(149,128,96);stroke-width:1.15px;"/>
    </g>
</svg>
